<svg version="1.1" viewBox="0.0 0.0 960.0 720.0" fill="none" stroke="none" stroke-linecap="square" stroke-miterlimit="10" xmlns:xlink="http://www.w3.org/1999/xlink" xmlns="http://www.w3.org/2000/svg"><clipPath id="p.0"><path d="m0 0l960.0 0l0 720.0l-960.0 0l0 -720.0z" clip-rule="nonzero"/></clipPath><g clip-path="url(#p.0)"><path fill="#000000" fill-opacity="0.0" d="m0 0l960.0 0l0 720.0l-960.0 0z" fill-rule="evenodd"/><path fill="#000000" fill-opacity="0.0" d="m385.46335 164.29921l150.4252 0l0 423.4016l-150.4252 0z" fill-rule="evenodd"/><path fill="#ffffff" d="m553.3227 309.54922l-63.640594 0l0 -19.53125q0 -13.671875 -2.453125 -17.40625q-2.4375 -3.75 -8.125 -3.75q-6.1875 0 -9.359375 5.046875q-3.171875 5.03125 -3.171875 15.296875q0 13.171875 3.578125 19.859375q3.40625 6.671875 19.359375 16.109375q45.734344 27.171875 57.62497 44.59375q11.875 17.40625 11.875 56.15625q0 28.15625 -6.59375 41.5q-6.59375 13.34375 -25.46875 22.375q-18.87497 9.03125 -43.93747 9.03125q-27.515625 0 -46.96875 -10.40625q-19.4375 -10.421875 -25.46875 -26.53125q-6.015625 -16.125 -6.015625 -45.734375l0 -17.265625l63.640625 0l0 32.0625q0 14.8125 2.671875 19.046875q2.6875 4.234375 9.53125 4.234375q6.828125 0 10.15625 -5.359375q3.34375 -5.375 3.34375 -15.96875q0 -23.265625 -6.34375 -30.421875q-6.5 -7.171875 -32.0625 -23.9375q-25.546875 -16.921875 -33.859375 -24.5625q-8.296875 -7.65625 -13.75 -21.15625q-5.453125 -13.515625 -5.453125 -34.515625q0 -30.265625 7.734375 -44.26564q7.734375 -14.0 24.984375 -21.890625q17.25 -7.890625 41.671875 -7.890625q26.6875 0 45.484344 8.625q18.796875 8.625 24.90625 21.734375q6.109375 13.093765 6.109375 44.500015l0 10.421875z" fill-rule="nonzero"/><path fill="#000000" fill-opacity="0.0" d="m350.08102 474.09448c-10.745178 0 -19.455902 -8.710693 -19.455902 -19.455902l0 -77.82834c0 -10.745209 -8.710693 -19.455902 -19.455902 -19.455902c10.745209 0 19.455902 -8.710724 19.455902 -19.455933l0 -77.82831l0 0c0 -10.745209 8.710724 -19.455933 19.455902 -19.455933l262.71176 0c5.160034 0 10.108765 2.04982 13.757446 5.698517c3.6486816 3.6486816 5.6984863 8.597382 5.6984863 13.757416l0 77.82831c0 10.745209 8.710693 19.455933 19.455933 19.455933c-10.745239 0 -19.455933 8.710693 -19.455933 19.455902l0 77.82834c0 10.745209 -8.710693 19.455902 -19.455933 19.455902z" fill-rule="evenodd"/><path fill="#000000" fill-opacity="0.0" d="m350.08102 474.09448c-10.745178 0 -19.455902 -8.710693 -19.455902 -19.455902l0 -77.82834c0 -10.745209 -8.710693 -19.455902 -19.455902 -19.455902c10.745209 0 19.455902 -8.710724 19.455902 -19.455933l0 -77.82831l0 0c0 -10.745209 8.710724 -19.455933 19.455902 -19.455933m262.71176 0c5.160034 0 10.108765 2.04982 13.757446 5.698517c3.6486816 3.6486816 5.6984863 8.597382 5.6984863 13.757416l0 77.82831c0 10.745209 8.710693 19.455933 19.455933 19.455933c-10.745239 0 -19.455933 8.710693 -19.455933 19.455902l0 77.82834c0 10.745209 -8.710693 19.455902 -19.455933 19.455902" fill-rule="evenodd"/><path stroke="#ffffff" stroke-width="24.0" stroke-linejoin="round" stroke-linecap="butt" d="m350.08102 474.09448c-10.745178 0 -19.455902 -8.710693 -19.455902 -19.455902l0 -77.82834c0 -10.745209 -8.710693 -19.455902 -19.455902 -19.455902c10.745209 0 19.455902 -8.710724 19.455902 -19.455933l0 -77.82831l0 0c0 -10.745209 8.710724 -19.455933 19.455902 -19.455933m262.71176 0c5.160034 0 10.108765 2.04982 13.757446 5.698517c3.6486816 3.6486816 5.6984863 8.597382 5.6984863 13.757416l0 77.82831c0 10.745209 8.710693 19.455933 19.455933 19.455933c-10.745239 0 -19.455933 8.710693 -19.455933 19.455902l0 77.82834c0 10.745209 -8.710693 19.455902 -19.455933 19.455902" fill-rule="evenodd"/></g></svg>