<svg version="1.1" viewBox="0.0 0.0 960.0 720.0" fill="none" stroke="none" stroke-linecap="square" stroke-miterlimit="10" xmlns:xlink="http://www.w3.org/1999/xlink" xmlns="http://www.w3.org/2000/svg"><clipPath id="p.0"><path d="m0 0l960.0 0l0 720.0l-960.0 0l0 -720.0z" clip-rule="nonzero"/></clipPath><g clip-path="url(#p.0)"><path fill="#000000" fill-opacity="0.0" d="m0 0l960.0 0l0 720.0l-960.0 0z" fill-rule="evenodd"/><path fill="#000000" d="m269.1811 360.0l0 0c0 -116.43207 94.38684 -210.8189 210.81891 -210.8189l0 0c55.91266 0 109.53528 22.211212 149.07147 61.74742c39.536194 39.53621 61.747437 93.15881 61.747437 149.07147l0 0c0 116.43207 -94.38684 210.81891 -210.81891 210.81891l0 0c-116.43207 0 -210.81891 -94.38684 -210.81891 -210.81891z" fill-rule="evenodd"/><path stroke="#000000" stroke-width="1.0" stroke-linejoin="round" stroke-linecap="butt" d="m269.1811 360.0l0 0c0 -116.43207 94.38684 -210.8189 210.81891 -210.8189l0 0c55.91266 0 109.53528 22.211212 149.07147 61.74742c39.536194 39.53621 61.747437 93.15881 61.747437 149.07147l0 0c0 116.43207 -94.38684 210.81891 -210.81891 210.81891l0 0c-116.43207 0 -210.81891 -94.38684 -210.81891 -210.81891z" fill-rule="evenodd"/><path fill="#000000" fill-opacity="0.0" d="m447.2126 292.12598l65.57483 0l0 135.74805l-65.57483 0z" fill-rule="evenodd"/><path fill="#ffffff" d="m501.9626 340.3641l-18.328125 0l0 -5.625q0 -3.9375 -0.703125 -5.015625q-0.703125 -1.078125 -2.34375 -1.078125q-1.78125 0 -2.703125 1.453125q-0.90625 1.453125 -0.90625 4.40625q0 3.796875 1.03125 5.71875q0.984375 1.921875 5.578125 4.640625q13.171875 7.828125 16.59375 12.84375q3.421875 5.015625 3.421875 16.171875q0 8.109375 -1.90625 11.953125q-1.890625 3.84375 -7.328125 6.453125q-5.4375 2.59375 -12.65625 2.59375q-7.921875 0 -13.53125 -3.0q-5.59375 -3.0 -7.328125 -7.640625q-1.734375 -4.640625 -1.734375 -13.171875l0 -4.96875l18.328125 0l0 9.234375q0 4.265625 0.765625 5.484375q0.78125 1.21875 2.75 1.21875q1.96875 0 2.921875 -1.546875q0.96875 -1.546875 0.96875 -4.59375q0 -6.703125 -1.828125 -8.765625q-1.875 -2.0625 -9.234375 -6.890625q-7.359375 -4.875 -9.75 -7.078125q-2.390625 -2.203125 -3.96875 -6.09375q-1.5625 -3.890625 -1.5625 -9.9375q0 -8.71875 2.21875 -12.75q2.234375 -4.03125 7.203125 -6.296875q4.96875 -2.28125 12.0 -2.28125q7.6875 0 13.09375 2.484375q5.421875 2.484375 7.171875 6.265625q1.765625 3.765625 1.765625 12.8125l0 3.0z" fill-rule="nonzero"/><path fill="#000000" fill-opacity="0.0" d="m433.7685 400.6929c-3.7455444 0 -6.781891 -3.0363464 -6.781891 -6.7818604l0 -27.12915c0 -3.7455444 -3.0363464 -6.781891 -6.781891 -6.781891c3.7455444 0 6.781891 -3.0363464 6.781891 -6.781891l0 -27.12915l0 0c0 -3.745514 3.0363464 -6.7818604 6.781891 -6.7818604l92.46301 0c1.798645 0 3.5236816 0.71450806 4.795532 1.9863586c1.2718506 1.2718506 1.9863281 2.9968567 1.9863281 4.7955017l0 27.12915c0 3.7455444 3.036377 6.781891 6.7819214 6.781891c-3.7455444 0 -6.7819214 3.0363464 -6.7819214 6.781891l0 27.12915c0 3.745514 -3.036316 6.7818604 -6.7818604 6.7818604z" fill-rule="evenodd"/><path fill="#000000" fill-opacity="0.0" d="m433.7685 400.6929c-3.7455444 0 -6.781891 -3.0363464 -6.781891 -6.7818604l0 -27.12915c0 -3.7455444 -3.0363464 -6.781891 -6.781891 -6.781891c3.7455444 0 6.781891 -3.0363464 6.781891 -6.781891l0 -27.12915l0 0c0 -3.745514 3.0363464 -6.7818604 6.781891 -6.7818604m92.46301 0c1.798645 0 3.5236816 0.71450806 4.795532 1.9863586c1.2718506 1.2718506 1.9863281 2.9968567 1.9863281 4.7955017l0 27.12915c0 3.7455444 3.036377 6.781891 6.7819214 6.781891c-3.7455444 0 -6.7819214 3.0363464 -6.7819214 6.781891l0 27.12915c0 3.745514 -3.036316 6.7818604 -6.7818604 6.7818604" fill-rule="evenodd"/><path stroke="#ffffff" stroke-width="1.0" stroke-linejoin="round" stroke-linecap="butt" d="m433.7685 400.6929c-3.7455444 0 -6.781891 -3.0363464 -6.781891 -6.7818604l0 -27.12915c0 -3.7455444 -3.0363464 -6.781891 -6.781891 -6.781891c3.7455444 0 6.781891 -3.0363464 6.781891 -6.781891l0 -27.12915l0 0c0 -3.745514 3.0363464 -6.7818604 6.781891 -6.7818604m92.46301 0c1.798645 0 3.5236816 0.71450806 4.795532 1.9863586c1.2718506 1.2718506 1.9863281 2.9968567 1.9863281 4.7955017l0 27.12915c0 3.7455444 3.036377 6.781891 6.7819214 6.781891c-3.7455444 0 -6.7819214 3.0363464 -6.7819214 6.781891l0 27.12915c0 3.745514 -3.036316 6.7818604 -6.7818604 6.7818604" fill-rule="evenodd"/></g></svg>